PathFileType	4	(X/Y/Z)	C:\Users\WrightLab\Desktop\Jo\P5V33.trc
DataRate	CameraRate	NumFrames	NumMarkers	Units	OrigDataRate	OrigDataStartFrame	OrigNumFrames
100.00	100.00	      13	19	mm	100.00	800	      1066
Frame#	Time	Headset_Front			Headset_Back			Headset_Left			Headset_Right			Left_Shoulder			Right_Shoulder			Sternum			C7			Left Elbow			Right Elbow			Left Wrist			Right Wrist			Left ASIS			Right ASIS			S2			Left Knee			Right Knee			Left Ankle			Right Ankle			
		X1	Y1	Z1	X2	Y2	Z2	X3	Y3	Z3	X4	Y4	Z4	X5	Y5	Z5	X6	Y6	Z6	X7	Y7	Z7	X8	Y8	Z8	X9	Y9	Z9	X10	Y10	Z10	X11	Y11	Z11	X12	Y12	Z12	X13	Y13	Z13	X14	Y14	Z14	X15	Y15	Z15	X16	Y16	Z16	X17	Y17	Z17	X18	Y18	Z18	X19	Y19	Z19	

800	7.990				623.31976	1534.37024	-225.76254	586.49725	1657.41638	-57.87575				528.82135	1500.61865	55.56944				725.73706	1315.03015	-72.71665	769.14948	1526.65833	119.26253	492.38260	1264.51563	-46.67836	1040.42297	1202.71912	8.58667	481.68112	1225.93323	155.02811	930.74396	1166.05261	-187.89601	612.37268	921.68860	-28.18450	889.87915	950.30951	-79.50559	766.27887	980.92230	246.67076	698.52338	474.22598	30.59633	939.40344	549.25818	-73.85329	673.41138	229.06400	383.08041	957.39441	118.14859	39.04425	
801	8.000				621.87573	1535.18347	-233.82765	587.11688	1658.29285	-65.63973				530.29199	1501.95203	49.51327				724.87036	1315.47803	-80.18035	771.34509	1527.95154	109.64386	493.91336	1264.92578	-52.83325	1040.75159	1203.33691	-4.12045	484.04755	1226.92029	148.67163	929.27472	1166.34375	-198.33493	610.61133	922.64557	-35.53030	888.54736	951.96710	-89.17087	767.39294	981.70410	236.37471	698.34680	473.72617	13.15370	943.64404	547.81207	-78.66642	679.30560	237.01897	366.43777	957.47601	118.40553	38.60401	
802	8.010				620.64667	1535.82446	-241.71680	587.12848	1659.36987	-73.60432				531.65436	1503.37976	42.79535				724.03455	1315.99939	-87.75121	774.55035	1528.73877	99.48618	494.67838	1265.84436	-59.39580	1041.30969	1204.31824	-17.30746	485.96692	1227.49353	143.14371	928.77612	1167.34143	-210.26877	609.88092	923.07373	-41.57329	887.47675	952.85339	-98.29800	768.17169	982.87335	227.61806	696.01532	475.22623	-6.34212	943.78772	542.92969	-80.82784	684.15656	245.77322	349.91098	957.85681	118.83504	38.16545	
803	8.020				619.20990	1536.46240	-249.73567	587.34271	1660.31372	-81.23473				532.98596	1504.71143	36.17624				722.56018	1316.02148	-95.63403	776.62732	1530.20361	89.77320	495.58734	1266.64673	-65.66625	1041.39844	1205.69067	-30.53652	487.51047	1229.20422	136.56126	925.84698	1167.97668	-220.82387	607.91028	923.92950	-47.49760	885.20612	953.26996	-106.87361	769.33612	983.66553	217.27739	694.47284	476.46341	-24.50206	949.23425	541.33209	-84.89626	688.04431	254.38889	334.88098	957.99487	119.57433	37.17729	
804	8.030				617.71222	1537.16309	-257.42883	587.30359	1661.33875	-89.40189				534.06226	1506.10291	29.70278				721.08490	1317.04089	-103.57076	778.62085	1531.37866	80.14792	496.23193	1267.87390	-71.70238	1041.64355	1206.48987	-43.48447	489.33347	1230.95178	129.68486	925.45776	1169.01074	-233.31247	605.31171	924.40881	-52.87150	883.44476	953.71082	-115.30553	770.96155	984.56934	207.32909	691.71503	478.98886	-42.23941	953.29761	538.31866	-89.07655	692.90570	262.90387	319.72028	958.09906	119.78628	37.00528	
805	8.040				615.97601	1537.92493	-265.31595	587.97906	1661.76770	-96.91454				535.39484	1506.89185	24.23772				720.18475	1317.71423	-112.05720	780.23102	1532.52148	70.69547	496.85742	1268.57751	-77.98224	1042.23535	1207.55444	-55.89956	490.79541	1232.10254	124.20538	922.20782	1169.77954	-243.76903	601.34424	925.69946	-58.17498	877.50677	952.26611	-121.27110	772.23907	985.11829	197.03452	687.18597	482.13016	-59.58992	957.51801	535.05707	-92.81489	697.30103	269.92859	303.05728	958.27008	120.11248	36.67275	
806	8.050				614.36719	1538.74036	-272.63474	586.81659	1662.79468	-104.28639				536.69702	1508.42395	17.27319				719.22589	1317.67896	-120.21100	781.75507	1533.76440	61.48129	496.99576	1269.67249	-83.40733	1042.02356	1208.83740	-68.71730	492.35367	1233.72839	119.43394	919.70575	1170.78613	-254.90556	598.81946	925.90332	-64.20082	880.05756	953.77106	-131.02812	774.11652	986.24512	186.69463	684.12872	484.41711	-76.07317	961.96332	532.07990	-95.33113	701.58722	275.99353	285.38947	958.13409	121.03699	35.83075	
807	8.060				612.48859	1539.55957	-280.55237	586.98602	1663.48108	-111.67994				537.47687	1509.44690	10.76231				717.94531	1318.01831	-128.27287	783.47272	1534.68726	51.76699	497.09253	1271.03333	-89.28504	1042.41479	1209.46472	-81.51169	492.78040	1235.05396	113.74390	917.35132	1171.53186	-266.15601	596.41760	926.83209	-68.97501	878.02039	952.73895	-138.95042	776.05603	986.86542	177.05920	679.72522	487.99139	-92.22157	965.76782	527.88501	-97.96464	705.02588	280.65448	267.94269	958.35791	121.30194	35.53605	
808	8.070				610.46283	1540.52808	-288.02264	586.12079	1664.09619	-118.98204				538.33368	1510.51318	4.86404				717.09515	1318.39539	-136.46909	785.22388	1535.53674	42.08754	497.49753	1272.15186	-94.80710	1043.13416	1210.60413	-94.81476	494.34106	1236.14429	107.86238	913.64789	1172.38599	-276.35626	593.88538	927.28656	-74.30607	877.35980	952.98138	-147.60222	777.41858	988.02509	166.93137	672.84369	491.77167	-109.50488	972.59967	527.73010	-101.84451	708.56024	283.94803	249.55516	958.15491	121.96222	34.88787	
809	8.080				608.56946	1541.43518	-295.30905	585.48346	1664.65723	-125.76530				539.22351	1511.11743	-1.34607				715.96649	1318.73853	-143.74083	787.04156	1536.04565	33.22216	497.17175	1273.39087	-100.06463	1042.48718	1210.52490	-106.84672	495.55582	1237.29651	103.03673	911.82001	1172.82581	-287.76971	591.92285	927.93689	-79.05185	875.77734	952.57214	-155.76984	779.56152	988.80475	156.86229	669.15649	494.87460	-122.51856	975.84735	524.50732	-102.35608	711.69226	285.86420	230.89977	958.19824	122.43204	34.22682	
810	8.090				606.38159	1542.41028	-302.82452	586.15100	1664.89209	-132.92094				539.97174	1511.99304	-7.55757				715.46527	1318.98621	-151.31973	787.77686	1536.69153	24.04581	496.80695	1274.65771	-105.39579	1042.22290	1211.83997	-120.08979	496.54376	1238.51807	97.33953	909.27979	1173.32727	-298.55661	589.60510	928.76318	-84.07848	874.92224	952.83167	-164.64243	780.99780	989.68713	146.84543	661.88104	499.38339	-136.17659	975.99951	522.14911	-104.20223	714.09106	286.82562	210.63821	957.79175	123.50414	33.16056	
811	8.100				604.18958	1543.26807	-310.07434	585.72260	1665.37842	-139.91536				540.67700	1512.57996	-13.94763				713.99066	1319.63892	-158.95293	788.27820	1537.27344	15.26050	496.67929	1275.56006	-110.67625	1041.36902	1212.10657	-131.93214	497.14566	1239.73853	92.38441	905.84821	1173.93103	-309.05527	587.91187	929.60162	-89.46415	873.71906	953.03070	-173.53818	782.80389	989.96454	136.50778	655.71948	503.01660	-148.37801	976.44037	521.65204	-106.85477	716.50183	286.42340	190.51088	957.76764	123.93308	32.38286	
812	8.110				601.91852	1544.16162	-317.07559	583.12164	1666.27625	-146.27347				541.11462	1513.52271	-19.95482				712.71381	1319.86035	-166.55968	789.52258	1538.03357	6.42259	495.61508	1276.74280	-115.85031	1041.18030	1211.99500	-144.47775	498.15900	1240.50708	86.88342	902.41199	1174.45093	-319.34479	586.74335	930.87903	-95.73557	867.82745	951.82367	-180.85378	784.09644	990.36139	126.71577	649.75897	507.09097	-158.95909	975.95166	521.75134	-109.68572	717.81226	285.04648	170.56970	957.72266	124.66434	31.53468	
